<svg width="187" height="22" viewBox="0 0 187 22" fill="none" xmlns="http://www.w3.org/2000/svg">
<path d="M20.9976 0H0V21.3864H20.9976V0Z" fill="#E7131E"/>
<path d="M9.72111 0.413934C9.75646 0.431936 9.77414 0.46794 9.79181 0.503944C9.86251 0.611956 9.91554 0.809979 9.96856 1.11601C10.163 2.48417 10.6756 5.4005 8.9611 6.84067C7.61782 7.9568 4.98428 7.32672 3.74705 6.53463C3.18146 6.17459 1.21956 4.62642 0.583267 2.97023C0.33582 2.34015 0.866063 1.98011 1.14886 2.10613C1.50235 2.28615 1.90887 2.86221 2.15632 3.20425C3.72937 5.3465 5.5322 6.55264 7.17595 6.55264C9.93321 6.55264 9.52669 3.24026 9.45599 0.55795C9.45599 0.539948 9.45599 0.413934 9.57972 0.37793C9.59739 0.395932 9.70344 0.413934 9.72111 0.413934ZM5.93872 10.4231C6.80478 10.117 8.11271 9.64899 8.85505 10.3691C9.84484 11.3412 9.59739 13.3394 9.1025 15.3736C8.57225 17.5519 7.47642 19.7841 6.68106 21.3863H6.82245C7.52944 20.4682 8.27178 19.2801 8.99645 17.8759C9.50902 16.8858 10.4811 14.0055 10.4811 11.6292C10.4811 10.6211 10.4104 9.61299 9.91553 9.03692C9.24389 8.24483 7.91829 8.29884 7.12292 8.44285C4.52474 8.8749 1.92655 10.8191 0 13.2854V14.9596C1.32561 12.9614 4.43636 10.9451 5.93872 10.4231ZM20.9976 16.3458C18.4878 16.0397 14.8114 15.1576 13.4682 12.1153C12.8672 10.7651 13.0793 9.05492 14.0691 8.04681C15.5184 6.55264 18.4701 5.95857 20.9976 6.01257V3.74431C18.3464 3.90633 12.6905 4.75243 12.0542 9.99103C11.6123 13.6094 14.7938 15.4637 15.3417 15.9137C16.844 16.7598 18.8236 17.2639 20.9976 17.3719V16.3458Z" fill="white"/>
<path d="M56.8245 7.66892V9.90117H72.0601V12.0434H56.8245V14.7797H72.7318V16.922H54.7212V5.52667H72.7141V7.66892H56.8245ZM49.0299 5.52667L39.9098 14.3837L30.7896 5.52667H28.1914V16.904H30.2947V8.13697L39.3265 16.904H40.4754L49.5248 8.13697V16.904H51.6281V5.52667H49.0299ZM96.6811 10.3692H84.132V12.5115H94.5778V13.5916C92.8633 14.4197 90.0884 15.0318 86.6418 15.0318C80.7208 15.0318 76.7793 12.7275 76.7793 11.2153C76.7793 9.30711 80.1729 7.36288 86.6418 7.36288C90.7777 7.36288 93.641 8.15497 95.1787 9.21709L96.3453 7.45289C94.3834 6.10274 91.1312 5.23864 86.6418 5.23864C78.7412 5.23864 74.6937 7.92095 74.6937 11.2333C74.6937 14.5277 80.0491 17.192 86.6418 17.192C90.8484 17.192 94.5601 16.2919 96.6811 14.7977V10.3692ZM117.166 14.3477H103.026L100.287 16.904H97.176L110.096 4.8606L123.016 16.904H119.906L117.166 14.3477ZM114.886 12.2234L110.114 7.75893L105.342 12.2234H114.886ZM138.853 5.52667H117.59V7.66892H127.17V16.904H129.273V7.66892H138.853V5.52667ZM150.819 5.23864C158.719 5.23864 162.767 7.92095 162.767 11.2333C162.767 14.5457 157.412 17.192 150.819 17.192C144.208 17.192 138.871 14.5457 138.871 11.2333C138.871 7.92095 142.918 5.23864 150.819 5.23864ZM160.664 11.2153C160.664 9.30711 157.27 7.36288 150.801 7.36288C144.332 7.36288 140.939 9.30711 140.939 11.2153C140.939 12.7275 144.862 15.0318 150.801 15.0318C156.74 15.0318 160.664 12.7455 160.664 11.2153ZM186.327 9.2711C186.327 11.3413 184.012 13.0155 181.166 13.0155H167.221V16.904H165.118V5.52667H181.166C184.012 5.52667 186.327 7.20086 186.327 9.2711ZM184.224 9.2711C184.224 8.49701 183.005 7.66892 181.166 7.66892H167.221V10.8733H181.166C183.005 10.8733 184.224 10.0452 184.224 9.2711Z" fill="black"/>
</svg>
